# xmcd CD database file
#
# Track frame offsets:
#	150
#	20515
#	35200
#	51040
#	68202
#	84712
#	104475
#	121987
#	143337
#	162975
#
# Disc length: 2326 seconds
#
# Revision: 6
# Processed by: cddbd v1.5.1PL2 Copyright (c) Steve Scherf et al.
# Submitted via: CDex 1.70beta2
#
DISCID=8609140a
DTITLE=Sertab Erener - SERTAB
DYEAR=1999
DGENRE=Pop
TTITLE0=Vur Yüregim
TTITLE1=Yanarim
TTITLE2=Ask
TTITLE3=Zor Kadin
TTITLE4=Tek Basina
TTITLE5=Makber
TTITLE6=Saril Bana
TTITLE7=Yolun Basi
TTITLE8=Sir
TTITLE9=Gece Kralicesi
EXTD=Erhan YEAR: 1999
EXTT0=
EXTT1=
EXTT2=
EXTT3=
EXTT4=
EXTT5=
EXTT6=
EXTT7=
EXTT8=
EXTT9=
PLAYORDER=
